<?xml version="1.0" encoding="UTF-8"?>
<svg version="1.1" viewBox="0 0 2800 2800" xmlns="http://www.w3.org/2000/svg">
 <g transform="translate(0 1747.6)">
  <rect y="-1747.6" width="2800" height="2800" fill="#fc0"/>
  <g transform="translate(0 122.15)">
   <path transform="translate(0 -1747.6)" d="m1251 296.97c-0.7916 0.0113-1.5818 0.0324-2.375 0.0625-57.903 1.0365-110.46 52.454-110.56 110.81-0.5995 35.654 16.154 71.432 44.375 93 0.012 9e-3 0.02 0.0224 0.031 0.0312 1.7914 2.3198 3.6906 4.5798 5.6562 6.75-3.3278 55.134 2.79 110.38 13.219 164.47-84.104-1.7528-165.27 49.078-203.28 123.28 4.9342-36.836 7.736-75.726 29.656-106.72 17.397-25.25 49.139-36.148 78.812-35.844 24.356-0.863 46.809 9.3166 69.781 15.75-12.098-45.895-23.651-93.204-48.375-134.03-4.0469-3.094-8.3805-5.4994-12.906-7.4375-2.2402-4.2424-4.5996-8.4439-7.0937-12.562-19.473-14.888-45.432-14.614-68.813-16.312-0.9274-0.011-1.8542 2.5e-4 -2.7812 0.0312-53.659 0.9439-106.18 34.639-126.62 84.531-2.0114 20.895 11.446 38.73 15.594 58.5 16.426 47.759 32.369 95.723 51.594 142.47l18.656 16.688c-2.1355 4.4578-4.1197 8.9824-5.9375 13.594-10.72 25.168-17.342 52.113-19.188 79.438-15.463 12.723-30.249 26.203-44.406 40.312-31.528-90.068-72.516-177.94-134.97-250.75-7.0755-7.9432-14.616-15.623-22.594-22.875-35.766-39.181-83.083-71.311-137.03-76.781-54.254-4.9081-106.87 17.241-150.84 47.188-41.912 28.882-76.832 71.837-86.125 122.94-9.3672 54.53 12.088 111.49 50.406 150.16 5.9683 6.5442 12.248 12.765 18.75 18.688 0.42276 0.43536 0.82303 0.88166 1.25 1.3125 36.136 39.622 82.722 67.391 131.56 88.906-64.556 8.3123-128.97 26.143-183.19 62.844-40.028 28.042-72.331 70.776-78.406 120.38-6.589 49.838 12.358 100.47 43.938 138.5 10.081 12.8 21.26 24.833 33.406 35.844 29.04 32.018 65.363 57.974 106.41 72.062 46.159 13.997 96.995 6.3694 139.38-15.469 25.644-12.314 49.168-28.499 71.031-46.656-8.2598 188.91 66.815 380.53 203.47 511.28 11.541 12.09 23.587 23.701 36.094 34.844 87.913 79.424 196.73 135.71 312.75 160.19 39.514 50.862 79.14 101.56 118.66 152.38 0.7401-0.9478 1.4788-1.8959 2.2188-2.8438 5.9298 7.6155 11.856 15.224 17.781 22.844 44.534-57.033 88.872-114.22 133.34-171.25 218.25-43.166 409.9-202.52 490.56-410.06 39.729-100.34 54.668-210.28 43.938-317.72 45.449 42.606 100.55 79.577 163.53 88.437 49.893 5.9213 101.12-11.288 138.91-43.812 46.729-35.735 85.32-86.519 94.594-145.88 7.2717-48.421-10.132-99.31-44.5-133.81-4.3419-4.5999-8.8782-8.9571-13.562-13.125-2.0727-2.3556-4.2217-4.6505-6.4375-6.875-43.962-46.574-106.45-70.387-167.81-83.937-6.3494-1.3544-12.732-2.5785-19.125-3.6876 54.027-22.585 105.14-53.286 144.88-96.562 32.884-37.068 54.842-87.1 48.5-137.53-5.0736-44.345-29.782-84.199-63.062-113.31-11.115-12.756-23.812-24.156-37.5-33.812-39.143-29.007-85.755-49.571-134.69-53.125-50.51-1.9503-99.46 20.093-135.91 54.031-54.502 48.329-90.79 113.24-121.94 178.28-19.291 41.866-35.444 85.146-50.156 128.81-0.021-0.0204-0.041-0.0421-0.062-0.0625-10.898-11.47-22.292-22.461-34.062-33.031-4.2784-61.925-34.577-121.48-80.812-162.53-27.915-31.423-63.864-55.452-104.72-67.062-13.577-3.9738-27.588-6.6736-41.719-8 8.5444-48.944 12.044-98.906 10.062-148.38 48.266-31.622 64.914-104.07 33.031-152.91-6.9332-11.578-16.112-21.658-26.75-29.906-29.517-38.399-85.119-56.076-130.69-37.281-45.192 17.729-78.193 65.967-72.844 115.25 2.5796 31.631 19.335 61.584 44.188 81 0.012 9e-3 0.02 0.0223 0.031 0.0312 9.4623 12.119 21.265 22.354 34.719 29.719 5.2269 54.626 0.4148 109.77-7.7813 163.84-9.1669 5.1999-18.772 9.6029-27.219 16-12.497 8.4769-24.154 18.127-34.625 28.938-29.518-1.7246-59.14-1.7957-88.656 0-12.828-13.238-27.424-24.838-43.187-34.5-7.919-54.984-11.749-111.14-5.0938-166.38 55.812-16.979 90.915-82.419 73.969-138.53-6.6625-23.023-21.073-43.376-39.813-58.188-21.561-27.384-55.229-45.38-90.5-44.875zm507.66 201.12c-23.203 0.05-45.941 5.5846-67.75 13.125-16.221 40.398-43.51 83.343-48.406 134.75l20 20c11.029-3.3319 13.373-3.239 22.75-5.7188 34.95-10.698 76.484-11.682 107.75 9.4375 13.796 19.763 19.743 44.89 25.656 68.125 3.1658 12.318 6.3737 24.579 10.094 36.719l20 20c21.1-62.894 43.298-125.31 64.531-188.16-9.0745-21.143-23.478-39.803-41.188-54.469-27.567-33.318-69.787-54.696-113.44-53.812z" fill="#f60"/>
   <path d="m1545.5-1440.5c-52.409 0.803-99.854 46.813-100.73 99.531-2.2102 46.792 31.054 93.293 76.982 104.06 6.3152 47.986 5.6285 96.662-0.3653 144.64-1.7389 15.351-3.9009 30.72-6.1973 46.046-25.088 11.589-48.047 28.148-66.906 48.312-32.117-2.176-64.384-2.2184-96.5 0-18.905-20.172-41.733-36.728-66.875-48.312-10.053-62.851-15.017-127.33-6.75-190.69 46.508-10.857 79.921-58.316 77.241-105.59-2.1992-51.621-48.157-96.913-99.897-97.891-51.09-2.5746-100.04 38.223-106.31 88.859-5.7771 40.274 14.275 83.24 49.594 103.56-4.87 61.373 2.5778 122.97 14.969 183.03-83.342-6.9323-166.91 40.975-204.92 114.67-16.889 30.939-26.81 65.725-28.642 101.02-24.311 19.817-47.128 41.431-68.312 64.531-31.714-100.6-72.857-200.59-139.65-283.33-33.534-40.216-77.514-75.186-130.21-84.782-44.871-7.7267-90.546 5.9599-129.34 27.926-45.351 24.242-85.638 62.14-102.99 111.44-16.889 49.944-3.5324 107.26 29.676 147.34 40.749 52.87 101.39 86.09 162.22 110.8 23.929 9.5792 48.479 17.544 73.291 24.439-76.778 1.9117-155.19 13.517-224.47 47.943-43.011 22.106-82.182 56.671-98.606 103.25-15.141 42.348-8.4711 90.806 14.174 129.21 25.057 45.007 64.824 80.863 109.93 105.2 38.444 19.151 84.748 22.332 125.47 8.1282 56.304-17.644 102.98-56.356 143.98-97.482 0.25589 2.5796-1.276 9.2364-1.5938 13.375-24.977 192.54 40.217 394.87 174 535.53 94.085 99.837 219.56 170.01 354.59 196.5 42.541 54.679 85.058 109.39 127.69 164.06 42.746-54.685 85.057-109.55 127.88-164.16 212.23-40.771 399.24-192.71 481.75-392.38 46.451-110.85 62.13-234.52 44.625-353.5 43.94 45.089 95.977 85.87 157.79 102.07 46.106 11.141 97.306 2.1378 135.59-26.195 43.68-29.413 82.008-70.58 99.906-120.97 13.406-38.708 12.155-83.438-8.187-119.49-24.816-46.751-71.174-77.723-119.4-96.486-61.781-24.812-128.92-32.48-195.07-34.56 74.31-20.735 148.11-51.523 206.41-103.19 35.798-32.747 64.558-77.45 66.406-127.22 1.8328-44.479-17.943-88.156-49.656-118.62-35.41-35.821-81.762-60.044-130.47-72-44.082-8.9636-91.296 1.4016-127.86 27.318-53.309 35.377-89.983 89.679-120.94 144.62-34.065 61.744-59.035 128.17-80.98 195.19-20.982-23.173-43.752-44.65-67.906-64.5-3.5171-87.864-61.332-172.49-144.47-203.02-28.352-10.482-58.998-14.969-89.246-12.602 12.785-60.041 19.626-121.73 15.25-183.12 46.34-26.402 65.06-92.69 37.446-138.87-18.222-33.059-55.504-54.642-93.384-53.66zm213.38 200.94c-20.634 0.081-40.96 4.639-60.406 11.187-12.992 31.247-39.852 78.955-43.013 113.17 15.359-3.3972 21.885-6.2592 35.044-8.0811 36.001-4.9846 76.489 1.5748 102.25 29 22.126 23.569 28.997 56.706 37 87.156 17.449-51.22 35.603-102.25 52.812-153.59-21.653-46.911-71.604-79.845-123.69-78.844zm-719.97 0.125c-49.814-0.016-98.483 30.415-119.16 75.781-2.171 14.946 8.2605 27.606 10.87 41.704 13.836 39.722 26.933 79.656 41.661 119.05 4.2288-32.989 12.394-67.746 36.094-92.375 25.716-27.05 66.49-33.153 101.94-27.594 10.213 1.6071 22.076 5.974 31.907 9.0324-10.616-40.897-22.147-77.247-40.439-111.44-13.416-11.315-32.065-10.622-48.465-13.743-4.7899-0.378-9.6066-0.4738-14.41-0.4133z" fill="#fff"/>
   <g transform="translate(-4.3678e-7 9.3374)">
    <g transform="translate(39.427)" fill="#ffffb9">
     <path transform="translate(0 -1747.6)" d="m578.06 599.31c-18.853-0.32776-38.596 3.1006-59.25 10.969-240.33 91.556-202.19 381.48 358.59 419.62 0 0-98.816-427.11-299.34-430.59zm74.156 423.91c-360.81 2.0007-410.89 218.13-230.62 342.5 211.69 146.05 448.06-322.41 448.06-322.41-82.202-14.282-154.54-20.442-217.44-20.094z"/>
     <path d="m2143.1-1148.3c18.853-0.3278 38.596 3.1006 59.25 10.969 240.33 91.556 202.19 381.48-358.59 419.62 0 0 98.816-427.11 299.34-430.59zm-74.156 423.91c360.81 2.0007 410.89 218.13 230.62 342.5-211.69 146.05-448.06-322.41-448.06-322.41 82.202-14.282 154.54-20.442 217.44-20.094z"/>
    </g>
    <path d="m1399-992.81c-205.31-1.2597-407.87 103.61-525.25 271.81-98.277 137.63-139.4 314.99-109.8 481.85 24.921 146.92 101.9 284.63 215.71 380.9 85.593 73.348 190.38 124.41 301.37 145.06 39.729 50.886 79.298 101.75 118.97 152.72 39.74-51.002 79.315-101.94 119.09-152.91 205.53-37.383 388.3-181.75 471.21-373.55 67.784-152.74 73.441-332.42 13.445-488.55-50.191-133.53-145.82-249.39-267.99-323.13-100.73-61.411-218.55-95.162-336.76-94.206z"/>
    <path transform="translate(0 -1747.6)" d="m1400 776.88c-323.15 0-588.86 245.99-620.06 560.94-0.19667 1.9851-0.38452 3.9781-0.5625 5.9687-0.013 0.1457-0.0183 0.2919-0.0312 0.4376-0.0379 0.4275-0.0879 0.8534-0.125 1.2812-0.18908 2.1822-0.36472 4.3739-0.53125 6.5625-0.0293 0.3855-0.0651 0.7706-0.0937 1.1563-0.32761 4.4149-0.57739 8.8409-0.8125 13.281-0.0254 0.4789-0.0695 0.9584-0.0937 1.4375-0.0132 0.26-0.0184 0.5212-0.0312 0.7813-0.11846 2.3956-0.22118 4.7848-0.3125 7.1874-8e-3 0.1985-0.0239 0.3953-0.0312 0.5938-0.17769 4.7959-0.27496 9.6148-0.34375 14.438-5e-3 0.3337-0.027 0.6662-0.0312 1-9.3e-4 0.073 9e-4 0.1458 0 0.2187-0.0321 2.6081-0.0625 5.2281-0.0625 7.8438 0 2.9082 0.0228 5.82 0.0625 8.7188 0.0264 1.9186 0.0812 3.8355 0.125 5.75 0.028 1.2303 0.0586 2.4588 0.0937 3.6874 0.0482 1.6792 0.0947 3.3555 0.15625 5.0313 0.1085 2.9667 0.22516 5.919 0.375 8.875 6e-3 0.1252 0.0248 0.2498 0.0312 0.375 0.13995 2.7288 0.2938 5.4681 0.46875 8.1875 0.0956 1.4799 0.20658 2.9604 0.3125 4.4375 0.20961 2.9329 0.43744 5.8597 0.6875 8.7813 0.30363 3.5473 0.63718 7.0948 1 10.625 0.33045 3.2151 0.68335 6.4244 1.0625 9.625 0.0731 0.6153 0.14387 1.2289 0.21875 1.8437 0.38935 3.2049 0.81218 6.404 1.25 9.5937 0.48037 3.4998 0.99301 6.9879 1.5312 10.469 0.51843 3.3528 1.0533 6.6963 1.625 10.031 0.0626 0.3648 0.12425 0.7293 0.1875 1.0938 0.55731 3.2167 1.1436 6.4254 1.75 9.625 1.2525 6.6084 2.6343 13.155 4.0938 19.688 0.1115 0.4987 0.19981 1.0017 0.3125 1.5 0.7145 3.1615 1.4564 6.3257 2.2188 9.4687 1.6376 6.7516 3.3944 13.461 5.25 20.125 21.67 77.82 58.04 149.49 105.97 211.84 2.8885 3.7581 5.8097 7.4979 8.7812 11.188 0.0275 0.034 0.0662 0.06 0.0937 0.094 3.0003 3.7237 6.0415 7.4101 9.125 11.063 0.10504 0.1244 0.20736 0.2506 0.3125 0.375 1.4382 1.7008 2.8877 3.3773 4.3438 5.0624 0.17847 0.2066 0.35252 0.4187 0.53125 0.625 1.386 1.5999 2.7855 3.1957 4.1875 4.7813 1.5834 1.7909 3.1776 3.5713 4.7812 5.3437 1.6029 1.7716 3.2209 3.5283 4.8438 5.2813 1.628 1.7585 3.2583 3.5104 4.9062 5.25 1.6377 1.7288 3.2803 3.4463 4.9375 5.1563 1.6641 1.717 3.3476 3.4271 5.0312 5.125 1.6769 1.6911 3.3664 3.3906 5.0625 5.0624 1.7042 1.68 3.4328 3.3397 5.1562 5 1.7202 1.6574 3.4484 3.2999 5.1875 4.9376 1.374 1.2937 2.7393 2.5936 4.125 3.875 0.85017 0.7861 1.708 1.5623 2.5625 2.3437 0.47324 0.4328 0.93167 0.8812 1.4062 1.3125 0.80789 0.7342 1.6258 1.4575 2.4375 2.1875 1.7788 1.5999 3.5777 3.1704 5.375 4.75 1.6096 1.4146 3.2195 2.8205 4.8438 4.2187 0.448 0.3857 0.89464 0.7719 1.3438 1.1563 1.5543 1.3304 3.12 2.6534 4.6875 3.9687 1.8305 1.5361 3.6515 3.0785 5.5 4.5938 3.7031 3.0359 7.4451 6.0173 11.219 8.9688 3.7636 2.9436 7.574 5.8604 11.406 8.7187 13.055 9.7367 26.497 18.978 40.312 27.688 0.6533 0.4119 1.3137 0.8092 1.9688 1.2188 0.1276 0.08 0.2474 0.1703 0.375 0.25 1.6514 1.0308 3.3071 2.0467 4.9688 3.0624 2.0493 1.2528 4.1226 2.4892 6.1874 3.7188 2.0646 1.2294 4.1389 2.4501 6.2188 3.6562 0.6587 0.3821 1.3085 0.7766 1.9688 1.1563 1.4246 0.8192 2.8495 1.6292 4.2812 2.4375 2.0973 1.184 4.2002 2.3397 6.3125 3.5 2.1065 1.1571 4.2225 2.3042 6.3437 3.4375 2.1285 1.1372 4.2632 2.2619 6.4063 3.375 1.6127 0.8376 3.2228 1.6761 4.8437 2.5 1.0908 0.5545 2.1869 1.108 3.2813 1.6563 0.5824 0.2917 1.1665 0.585 1.75 0.875 1.0163 0.505 2.0431 1.0003 3.0625 1.5 2.0653 1.0122 4.1407 2.01 6.2188 3 0.3445 0.1641 0.6863 0.3364 1.0312 0.5 1.1032 0.523 2.2058 1.0457 3.3125 1.5624 0.8386 0.3916 1.6906 0.7683 2.5313 1.1563 2.1906 1.0109 4.3894 2.0139 6.5937 3 2.2112 0.9892 4.4315 1.9734 6.6563 2.9375 3.9812 1.7253 7.9761 3.4184 12 5.0625 0.468 0.1912 0.9376 0.3724 1.4062 0.5625 2.2219 0.9015 4.4529 1.811 6.6875 2.6875 0.2267 0.089 0.4607 0.1613 0.6875 0.25 1.7905 0.6999 3.5764 1.41 5.375 2.0937 0.2803 0.1066 0.5633 0.2064 0.8438 0.3126 2.0929 0.7922 4.1776 1.5735 6.2812 2.3437 0.1858 0.068 0.3766 0.1196 0.5625 0.1875 2.2016 0.8037 4.4119 1.5955 6.625 2.375 2.3845 0.84 4.7898 1.6571 7.1875 2.4688 0.013 0 0.019 0.027 0.031 0.031 2.3008 0.7787 4.5936 1.5288 6.9063 2.2812 1.3743 0.4472 2.7465 0.8748 4.125 1.3126 0.9592 0.3046 1.9138 0.6373 2.875 0.9374 0.2082 0.065 0.4167 0.1228 0.625 0.1876 0.1134 0.035 0.2303 0.058 0.3437 0.094 3.7005 1.1486 7.4267 2.2626 11.156 3.3437 0.658 0.1908 1.3098 0.4051 1.9687 0.5938 0.4159 0.1191 0.8338 0.2255 1.25 0.3438 1.9465 0.5529 3.8897 1.0905 5.8438 1.625 2.3746 0.6492 4.7704 1.2844 7.1562 1.9062 1.4784 0.3853 2.9549 0.7816 4.4376 1.1562 1.4068 0.3557 2.8081 0.7165 4.2187 1.0626 1.2668 0.3106 2.5427 0.6033 3.8125 0.9062 0.8316 0.1984 1.6671 0.3674 2.5 0.5625 1.6014 0.375 3.2064 0.7624 4.8125 1.125 1.0195 0.2302 2.0412 0.4623 3.0625 0.6875 0.5305 0.117 1.0627 0.2281 1.5938 0.3438 1.4697 0.32 2.9326 0.6278 4.4062 0.9374 2.3839 0.5009 4.7624 0.9953 7.1562 1.4688 0.1041 0.021 0.2084 0.042 0.3126 0.062 1.8408 0.3631 3.6846 0.7156 5.5312 1.0625 1.3943 0.262 2.7898 0.5285 4.1875 0.7812 0.9364 0.1693 1.8746 0.335 2.8125 0.5 0.6573 0.1158 1.3106 0.2301 1.9688 0.3438l106.78 137.41 106.78-137.41c0.6562-0.1133 1.3134-0.2284 1.9688-0.3438 0.9395-0.1654 1.8744-0.3303 2.8125-0.5 1.3984-0.2527 2.7923-0.5191 4.1875-0.7812 1.8411-0.346 3.6959-0.7003 5.5312-1.0625 0.1043-0.021 0.2083-0.042 0.3126-0.062 2.3938-0.4735 4.7723-0.9679 7.1562-1.4688 2.0069-0.4217 4.0003-0.8402 6-1.2812 1.0214-0.2252 2.043-0.4573 3.0625-0.6875 1.6035-0.3621 3.2137-0.7505 4.8125-1.125 0.8309-0.1946 1.6704-0.3646 2.5-0.5625 1.2737-0.3039 2.5418-0.5945 3.8125-0.9062 1.4122-0.3464 2.8104-0.7066 4.2187-1.0626 1.483-0.3748 2.9589-0.7707 4.4376-1.1562 2.3858-0.6218 4.7816-1.257 7.1562-1.9062 0.8353-0.2285 1.6661-0.4557 2.5-0.6876 2.1945-0.6099 4.3778-1.2417 6.5625-1.875 3.7296-1.0811 7.4558-2.1951 11.156-3.3437 1.287-0.3995 2.5602-0.8111 3.8437-1.2187 5.4278-1.7242 10.825-3.5074 16.188-5.375 1.2102-0.4215 2.4182-0.8526 3.625-1.2813 6.0874-2.1627 12.126-4.405 18.125-6.75 0.227-0.089 0.4606-0.161 0.6875-0.25 2.7035-1.0605 5.4088-2.1529 8.0937-3.25 4.0239-1.6441 8.0188-3.3372 12-5.0625 2.2248-0.9641 4.4451-1.9483 6.6563-2.9375 2.2043-0.9861 4.4031-1.9891 6.5937-3 1.9471-0.8986 3.9077-1.8007 5.8438-2.7187 0.3452-0.1637 0.6864-0.3358 1.0312-0.5 2.0781-0.99 4.1535-1.9878 6.2188-3 1.6043-0.7864 3.216-1.5753 4.8125-2.375 1.0941-0.5481 2.1908-1.102 3.2813-1.6563 1.6191-0.8231 3.2328-1.6632 4.8437-2.5 2.1431-1.1131 4.2778-2.2378 6.4063-3.375 2.1212-1.1333 4.2372-2.2804 6.3437-3.4375 2.1123-1.1603 4.2152-2.316 6.3125-3.5 2.0952-1.1828 4.1699-2.3874 6.25-3.5938 2.0799-1.2061 4.1542-2.4268 6.2188-3.6562 2.0648-1.2296 4.1381-2.466 6.1874-3.7188 1.7899-1.0941 3.5659-2.2008 5.3438-3.3124 0.6555-0.4099 1.3149-0.8066 1.9688-1.2188 13.815-8.7096 27.258-17.951 40.312-27.688 3.8324-2.8583 7.6427-5.7751 11.406-8.7187 3.7736-2.9515 7.5156-5.9329 11.219-8.9688 1.8485-1.5153 3.6695-3.0577 5.5-4.5938 1.5676-1.3153 3.1332-2.6383 4.6876-3.9687 0.2579-0.2208 0.5236-0.435 0.7812-0.6563 0.6775-0.5818 1.3563-1.1653 2.0312-1.75 1.1348-0.9829 2.2475-1.9777 3.375-2.9687 1.7973-1.5796 3.5962-3.1501 5.375-4.75 0.8118-0.73 1.6297-1.4533 2.4376-2.1875 0.9605-0.873 1.9199-1.7461 2.875-2.625 0.8792-0.8091 1.7504-1.6234 2.625-2.4375 0.8741-0.8137 1.7243-1.6501 2.5937-2.4687 1.7391-1.6377 3.4673-3.2802 5.1875-4.9376 1.7234-1.6603 3.452-3.32 5.1562-5 1.6961-1.6718 3.3857-3.3713 5.0626-5.0624 1.6836-1.6979 3.3671-3.408 5.0312-5.125 1.6572-1.71 3.2998-3.4275 4.9375-5.1563 1.6479-1.7396 3.2783-3.4915 4.9063-5.25 1.6228-1.753 3.2408-3.5097 4.8437-5.2813 1.6036-1.7724 3.1978-3.5528 4.7813-5.3437 1.4019-1.5856 2.8014-3.1814 4.1874-4.7813 0.1788-0.2063 0.3528-0.4184 0.5313-0.625 1.456-1.6851 2.9056-3.3616 4.3437-5.0624 0.1052-0.1244 0.2075-0.2506 0.3126-0.375 3.0834-3.6525 6.1247-7.3389 9.125-11.063 0.027-0.034 0.066-0.06 0.094-0.094 2.9716-3.6896 5.8928-7.4294 8.7813-11.188 47.929-62.358 84.299-134.02 105.97-211.84 1.8556-6.6636 3.6124-13.373 5.25-20.125 0.8173-3.3696 1.6127-6.7654 2.375-10.156 1.5286-6.7993 2.9457-13.619 4.25-20.5 0.6064-3.1996 1.1927-6.4083 1.75-9.625 0.042-0.2395 0.084-0.4792 0.125-0.7188 0.022-0.1246 0.041-0.2502 0.062-0.375 0.5717-3.3349 1.1066-6.6784 1.625-10.031 0.5382-3.4809 1.0509-6.969 1.5312-10.469 0.4379-3.1897 0.8607-6.3888 1.25-9.5937 0.037-0.3026 0.089-0.6035 0.125-0.9063 0.038-0.3115 0.057-0.6257 0.094-0.9374 0.3792-3.2006 0.732-6.4099 1.0625-9.625 0.3628-3.5302 0.6964-7.0777 1-10.625 0.2501-2.9216 0.4779-5.8484 0.6875-8.7813 0.1059-1.4771 0.2169-2.9576 0.3125-4.4375 0.013-0.1977 0.019-0.396 0.031-0.5938 0.1598-2.5215 0.3077-5.0641 0.4374-7.5937 0.01-0.1252 0.025-0.2498 0.031-0.375 0.1498-2.956 0.2665-5.9083 0.375-8.875 0.062-1.6758 0.108-3.3521 0.1563-5.0313 0.02-0.6872 0.045-1.3746 0.062-2.0624 0.014-0.5407 0.019-1.084 0.031-1.625 0.044-1.9145 0.099-3.8314 0.125-5.75v-0.6563c0.034-2.6805 0.062-5.3739 0.062-8.0625 0-2.6157-0.03-5.2357-0.062-7.8438-9e-4 -0.073 9e-4 -0.1458 0-0.2187 0-0.3338-0.026-0.6663-0.031-1-0.069-4.8227-0.166-9.6416-0.3437-14.438-0.01-0.1985-0.024-0.3953-0.031-0.5938-0.061-1.6193-0.1448-3.2276-0.2187-4.8437-0.048-1.0416-0.072-2.0848-0.125-3.125-0.024-0.4791-0.068-0.9586-0.094-1.4375-0.2352-4.4403-0.4849-8.8663-0.8126-13.281-0.029-0.3857-0.064-0.7708-0.094-1.1563-0.1665-2.1886-0.3422-4.3803-0.5313-6.5625-0.039-0.4485-0.085-0.8956-0.125-1.3438-0.1879-2.1166-0.3846-4.2332-0.5937-6.3437-31.202-314.95-296.91-560.94-620.06-560.94z" fill="#ff0"/>
    <path d="m1833.7-741.47s240.08 226.59 105.2 644.7c-37.765 91.715-105.2 210.4-307.51 302.12 72.832-56.647 301.42-223.24 294.03-539.5-7.438-318.3-91.715-407.32-91.715-407.32z" fill="#ffb400"/>
    <path transform="translate(0 -1747.6)" d="m965.7 1006.2s-240.08 226.59-105.2 644.7c37.765 91.715 105.2 210.4 307.51 302.12-72.832-56.647-301.42-223.24-294.03-539.5 7.438-318.3 91.715-407.32 91.715-407.32z" fill="#ffffb9"/>
    <path transform="translate(0 -1747.6)" d="m779.94 1337.8c-2.0263 20.453-3.0625 41.202-3.0625 62.188 0 58.038 7.9687 114.23 22.812 167.53 138.62 139.28 355.96 229 600.31 229s461.7-89.722 600.31-229c14.844-53.306 22.812-109.49 22.812-167.53 0-20.986-1.0362-41.735-3.0625-62.188-116.48 157.18-350.43 264.5-620.06 264.5s-503.58-107.32-620.06-264.5zm125.72 441.56c93.314 121.41 230.36 207.47 387.56 234.62l106.78 137.41 106.78-137.41c157.2-27.157 294.25-113.22 387.56-234.62-136.54 85.138-308.06 135.84-494.34 135.84s-357.81-50.705-494.34-135.84zm394.09 235.72c2.5507 0.4126 5.0953 0.8059 7.6562 1.1874-2.5591-0.3814-5.1074-0.7751-7.6562-1.1874zm200.5 0c-2.5488 0.4123-5.0971 0.806-7.6562 1.1874 2.5609-0.3815 5.1055-0.7748 7.6562-1.1874zm-174.22 3.6874c2.6954 0.3189 5.388 0.6219 8.0938 0.9063-2.7028-0.2844-5.4014-0.5874-8.0938-0.9063zm147.94 0c-2.6924 0.3189-5.391 0.6219-8.0938 0.9063 2.7058-0.2844 5.3984-0.5874 8.0938-0.9063z" fill="#1a1a1a"/>
    <g transform="translate(-27.044)">
     <path transform="translate(0 -1747.6)" d="m1278.8 314.16c-48.262 0-87.375 39.113-87.375 87.375 0 35.371 21.025 65.812 51.25 79.562-0.068 0.6503-0.122 1.3058-0.1874 1.9688-9.6534 98.142 14.319 208.11 45.969 303.78 8.165-1.4757 16.384-2.7833 24.656-3.9375-22.615-99.834-34.623-201.13-24.844-270.5 1.2101-8.5831 1.8422-16.705 2-24.25 42.852-5.6077 75.938-42.244 75.938-86.625 0-48.262-39.144-87.375-87.406-87.375z"/>
     <path transform="matrix(1.2269 0 0 1.2269 930.44 -2046.9)" d="m343.93 571.19c0 33.148-26.872 60.019-60.019 60.019-33.148 0-60.019-26.872-60.019-60.019s26.872-60.019 60.019-60.019c33.148 0 60.019 26.872 60.019 60.019z" fill="#ff0"/>
     <path transform="matrix(.43243 0 0 .43243 1140.8 -1627.4)" d="m343.93 571.19c0 33.148-26.872 60.019-60.019 60.019-33.148 0-60.019-26.872-60.019-60.019s26.872-60.019 60.019-60.019c33.148 0 60.019 26.872 60.019 60.019z" fill="#ffffe1"/>
     <g transform="matrix(-1 0 0 1 2854.1 0)">
      <path transform="translate(0 -1747.6)" d="m1278.8 314.16c-48.262 0-87.375 39.113-87.375 87.375 0 35.371 21.025 65.812 51.25 79.562-0.068 0.6503-0.122 1.3058-0.1874 1.9688-9.6534 98.142 14.319 208.11 45.969 303.78 8.165-1.4757 16.384-2.7833 24.656-3.9375-22.615-99.834-34.623-201.13-24.844-270.5 1.2101-8.5831 1.8422-16.705 2-24.25 42.852-5.6077 75.938-42.244 75.938-86.625 0-48.262-39.144-87.375-87.406-87.375z"/>
      <path transform="matrix(1.2269 0 0 1.2269 930.44 -2046.9)" d="m343.93 571.19c0 33.148-26.872 60.019-60.019 60.019-33.148 0-60.019-26.872-60.019-60.019s26.872-60.019 60.019-60.019c33.148 0 60.019 26.872 60.019 60.019z" fill="#ff0"/>
      <path transform="matrix(.43243 0 0 .43243 1174.8 -1627.4)" d="m343.93 571.19c0 33.148-26.872 60.019-60.019 60.019-33.148 0-60.019-26.872-60.019-60.019s26.872-60.019 60.019-60.019c33.148 0 60.019 26.872 60.019 60.019z" fill="#ffffe1"/>
     </g>
    </g>
    <g transform="matrix(1.3769 0 0 1.3769 -541.82 55.895)">
     <path transform="matrix(1.1031 0 0 1.1386 -144.87 -1901.4)" d="m1409.4 1095.2c0 75.234-59.48 136.22-132.85 136.22s-132.85-60.989-132.85-136.22 59.48-136.22 132.85-136.22 132.85 60.989 132.85 136.22z" fill="#c8a500"/>
     <path transform="translate(0 -1747.6)" d="m1409.4 1095.2c0 75.234-59.48 136.22-132.85 136.22s-132.85-60.989-132.85-136.22 59.48-136.22 132.85-136.22 132.85 60.989 132.85 136.22z" fill="#fff"/>
     <path transform="matrix(1.1212 0 0 1.1212 -156.99 -1882.9)" d="m1358.1 1115.8c0 34.763-28.181 62.945-62.945 62.945-34.763 0-62.945-28.181-62.945-62.945s28.181-62.945 62.945-62.945 62.945 28.181 62.945 62.945z"/>
     <path transform="translate(0 -1747.6)" d="m1358.1 1115.8c0 34.763-28.181 62.945-62.945 62.945-34.763 0-62.945-28.181-62.945-62.945s28.181-62.945 62.945-62.945 62.945 28.181 62.945 62.945z" fill="#1a1a1a"/>
     <path transform="matrix(.43939 0 0 .43939 726.06 -1122.1)" d="m1358.1 1115.8c0 34.763-28.181 62.945-62.945 62.945-34.763 0-62.945-28.181-62.945-62.945s28.181-62.945 62.945-62.945 62.945 28.181 62.945 62.945z"/>
     <path transform="matrix(.34848 0 0 .34848 826.63 -1042.6)" d="m1358.1 1115.8c0 34.763-28.181 62.945-62.945 62.945-34.763 0-62.945-28.181-62.945-62.945s28.181-62.945 62.945-62.945 62.945 28.181 62.945 62.945z" fill="#fff"/>
     <path transform="matrix(.24242 0 0 .24242 999.28 -886.16)" d="m1358.1 1115.8c0 34.763-28.181 62.945-62.945 62.945-34.763 0-62.945-28.181-62.945-62.945s28.181-62.945 62.945-62.945 62.945 28.181 62.945 62.945z" fill="#fff"/>
     <path transform="matrix(-1.1031 0 0 1.1386 2965.5 -1901.4)" d="m1409.4 1095.2c0 75.234-59.48 136.22-132.85 136.22s-132.85-60.989-132.85-136.22 59.48-136.22 132.85-136.22 132.85 60.989 132.85 136.22z" fill="#c8a500"/>
     <path transform="matrix(-1 0 0 1 2820.6 -1747.6)" d="m1409.4 1095.2c0 75.234-59.48 136.22-132.85 136.22s-132.85-60.989-132.85-136.22 59.48-136.22 132.85-136.22 132.85 60.989 132.85 136.22z" fill="#fff"/>
     <g transform="translate(230.38)">
      <path transform="matrix(1.1212 0 0 1.1212 -156.99 -1882.9)" d="m1358.1 1115.8c0 34.763-28.181 62.945-62.945 62.945-34.763 0-62.945-28.181-62.945-62.945s28.181-62.945 62.945-62.945 62.945 28.181 62.945 62.945z"/>
      <path transform="translate(0 -1747.6)" d="m1358.1 1115.8c0 34.763-28.181 62.945-62.945 62.945-34.763 0-62.945-28.181-62.945-62.945s28.181-62.945 62.945-62.945 62.945 28.181 62.945 62.945z" fill="#1a1a1a"/>
      <path transform="matrix(.43939 0 0 .43939 726.06 -1122.1)" d="m1358.1 1115.8c0 34.763-28.181 62.945-62.945 62.945-34.763 0-62.945-28.181-62.945-62.945s28.181-62.945 62.945-62.945 62.945 28.181 62.945 62.945z"/>
      <path transform="matrix(.34848 0 0 .34848 826.63 -1042.6)" d="m1358.1 1115.8c0 34.763-28.181 62.945-62.945 62.945-34.763 0-62.945-28.181-62.945-62.945s28.181-62.945 62.945-62.945 62.945 28.181 62.945 62.945z" fill="#fff"/>
      <path transform="matrix(.24242 0 0 .24242 999.28 -886.16)" d="m1358.1 1115.8c0 34.763-28.181 62.945-62.945 62.945-34.763 0-62.945-28.181-62.945-62.945s28.181-62.945 62.945-62.945 62.945 28.181 62.945 62.945z" fill="#fff"/>
     </g>
    </g>
    <path transform="translate(87.669 -1960.7)" d="m1578 1458c0 146.74-118.96 265.7-265.7 265.7s-265.7-118.96-265.7-265.7h265.7z" fill="#c8a500"/>
    <path transform="matrix(.88832 0 0 .88832 234.22 -1783.1)" d="m1578 1458c0 146.74-118.96 265.7-265.7 265.7s-265.7-118.96-265.7-265.7h265.7z" fill="#500"/>
    <path transform="translate(0 -1747.6)" d="m1400 1335.1c-74.003 0-138.4 34.942-171.75 86.5 43.04 45.651 104.06 74.156 171.75 74.156s128.71-28.506 171.75-74.156c-33.348-51.558-97.747-86.5-171.75-86.5z" fill="#f00"/>
    <path transform="translate(0 -1747.6)" d="m1180.8 1259.7c14.436 29.145 33.288 68.06 55.156 77.281 79.158 33.38 259.3 28.74 338.57-4.7709 21.792-9.2119 37.417-41.459 46.238-72.51h-220.81z" fill="#fff"/>
    <g transform="translate(-2.8336)" fill="#c8a500">
     <path transform="translate(0 -1747.6)" d="m1065.9 1114.8c-7.295 0.1853-15.072 2.4103-23 7.75-36.244 24.41 69.094 16.688 69.094 16.688s-20.04-25.099-46.094-24.438zm2.875 30.375c-13.268 0.3189-27.791 5.2446-37.438 21.75-22.05 37.727 69.5-14.969 69.5-14.969s-15.004-7.1912-32.062-6.7812z"/>
     <path d="m1739.7-632.89c7.295 0.1853 15.072 2.4103 23 7.75 36.244 24.41-69.094 16.688-69.094 16.688s20.04-25.099 46.094-24.438zm-2.875 30.375c13.268 0.3189 27.791 5.2446 37.438 21.75 22.05 37.727-69.5-14.969-69.5-14.969s15.004-7.1912 32.062-6.7812z"/>
    </g>
    <path d="m1042.6-1232.8c-76.582-0.9702-107.84 63.969-107.84 63.969l34.219 99.625c36.89-106.03 151.81-77.312 151.81-77.312s-2.6235-18.884-30.875-78.125c-17.377-5.5311-33.131-7.9765-47.313-8.1562zm714.81 0c-14.182 0.1797-29.904 2.6251-47.281 8.1562-28.252 59.241-30.875 78.125-30.875 78.125s114.89-28.716 151.78 77.312l34.25-99.625s-31.293-64.939-107.88-63.969z" stroke="#000" stroke-width="1px"/>
    <path d="m1159.6-532.61c-3.5022 0.0679-6.902 0.6953-9.2187 1.7813-9.267 4.344-23.733 10.713-37.344 43.438-13.611 32.724 11.004 56.474 21.719 23.75s33.875-49.812 33.875-49.812c13.032-14.335 1.4756-19.36-9.0313-19.156zm479.56 0c-10.111 0.2312-20.208 5.4186-7.7188 19.156 0 0 23.16 17.088 33.875 49.812s35.33 8.9742 21.719-23.75c-13.611-32.724-28.077-39.094-37.344-43.438-2.6063-1.2217-6.5748-1.8717-10.531-1.7813z" fill="#c8a500"/>
    <path transform="translate(0 -1747.6)" d="m819.66 1384.8c-1.8743 67.331 6.0494 143.23 29.281 227.44 23.305 19.138 48.25 37.048 74.656 53.625-29.195-65.452-48.912-142.3-49.75-231.5-19.509-15.68-37.608-32.219-54.188-49.563zm141.06 426.03c46.454 49.611 111.84 98.919 207.28 142.19-25.409-19.762-69.78-52.944-116.47-101.16-31.46-12.119-61.775-25.863-90.812-41.031zm352.97 210.28 84.969 115.31s-11.479-36.408-29.687-111.94c-25.626 3.3719-55.281-3.375-55.281-3.375z" fill="#333"/>
    <path transform="translate(0 -1747.6)" d="m1979.8 1384.8c-16.58 17.344-34.679 33.883-54.188 49.563-0.8377 89.197-20.556 166.05-49.75 231.5 26.407-16.577 51.352-34.487 74.656-53.625 23.232-84.207 31.156-160.11 29.281-227.44zm-141.06 426.03c-29.038 15.168-59.352 28.912-90.812 41.031-46.689 48.212-91.06 81.394-116.47 101.16 95.446-43.269 160.83-92.576 207.28-142.19zm-362.34 209.06c-19.074 8.5834-55.313 7.625-55.313 7.625l-16.219 104.91s51.503-82.012 71.531-112.53z"/>
   </g>
  </g>
 </g>
</svg>
